PathFileType	3	(X/Y/Z)	D:\Jess\PFP\Labelled\PA03\20250519\SRRun01.trc
DataRate	CameraRate	NumFrames	NumMarkers	Units	OrigDataRate	OrigDataStartFrame	OrigNumFrames
250.0	250.0	6	33	mm	250.0	35312	2501
Frame#	Time	C7			T10			CLAV			LSHO			RSHO			LASIS			RASIS			LPSIS			RPSIS			LILCR			RILCR			LGTR			LTHI			LLTHI			LLEP			LPSH			LLSH			LDSH			LLMAL			LTOE			L5TH			LHEE			RGTR			RTHI			RLTHI			RLEP			RPSH			RLSH			RDSH			RLMAL			RTOE			R5TH			RHEE			
		X1	Y1	Z1	X2	Y2	Z2	X3	Y3	Z3	X4	Y4	Z4	X5	Y5	Z5	X6	Y6	Z6	X7	Y7	Z7	X8	Y8	Z8	X9	Y9	Z9	X10	Y10	Z10	X11	Y11	Z11	X12	Y12	Z12	X13	Y13	Z13	X14	Y14	Z14	X15	Y15	Z15	X16	Y16	Z16	X17	Y17	Z17	X18	Y18	Z18	X19	Y19	Z19	X20	Y20	Z20	X21	Y21	Z21	X22	Y22	Z22	X23	Y23	Z23	X24	Y24	Z24	X25	Y25	Z25	X26	Y26	Z26	X27	Y27	Z27	X28	Y28	Z28	X29	Y29	Z29	X30	Y30	Z30	X31	Y31	Z31	X32	Y32	Z32	X33	Y33	Z33	

313	141.244	599.5164872728208	1509.154987455939	-287.7815564202394	481.4499673353017	1295.035753086488	-290.2444884600623	712.9142110368356	1390.616866888734	-263.9325959972494	666.9308239756703	1459.615418754083	-434.5462831200938	613.43221713883	1474.97101944526	-130.3503508522979	622.5966164821549	983.3510992172144	-385.7484102080408	612.3493986291446	996.9752064770597	-130.6673668825831	448.5146460669949	1059.113413034777	-278.0042490017172	443.8763274309715	1059.000665434901	-237.7310760054395	564.0842654111794	1058.107559694354	-422.5283208153836	549.9368246841266	1082.30180249638	-101.0377288198923	520.364753047854	915.9639424735633	-429.0609216981032	605.2649871639344	706.6037960018863	-341.4292625718827	481.5861384310943	637.5691440066632	-396.7127175914853	433.0947688254665	493.1766067325821	-369.2720497472226	450.3507350741415	394.5943458780708	-319.4157085545834	321.6103201521036	329.7178122856403	-374.2971467527835	322.3545845878896	223.4751477686197	-313.1898242926849	210.5261088916653	167.055544884882	-344.8999163605818	328.5771276044338	56.51037650733073	-334.743856571068	287.3239747608135	37.2868914254329	-375.6505592683349	143.5313725538946	152.2851644534376	-297.2074084432275	570.3863895757439	914.4791330207694	-74.5404981829641	728.3580346768275	808.8050821310248	-171.3821258625487	697.3054710800695	700.8169983836171	-88.65491533004813	751.3535531360714	573.8491444781615	-121.8682403215173	741.0699306651952	470.5926536928298	-178.9454700567986	611.4463727974746	419.8833587521083	-119.005817091453	582.3652072907616	327.2204253976848	-178.416407126906	471.0258638343379	284.3846141149182	-141.0780369191854	507.2518013374944	131.1609952730432	-161.2861500926575	468.7664500832487	144.8183836702943	-123.0608501484743	412.2105655027744	324.2948526123615	-189.1357315044963	
314	141.248	599.8802641304244	1511.995155384867	-287.5442488265954	482.5974960227293	1297.714999457546	-291.7994026625146	713.2171600110271	1393.725729822651	-262.2889425410881	669.2591590101446	1463.091521801291	-433.2231493764242	611.9657132385888	1477.943766347757	-130.1862570324069	623.6947146197322	985.2441151471321	-385.7589237562984	612.690550405767	1000.828453093001	-131.2061718511773	449.6799576371424	1062.129787527884	-278.4054783053812	444.6922217665698	1062.299489564941	-238.1954236076184	565.4627080491723	1060.194650728451	-422.5993745996312	550.5281917087966	1086.398956167583	-101.752632920516	520.3993079800395	918.2027950923803	-428.7120428624728	602.3105633400672	707.6504191205368	-341.1311045916863	477.5604637623351	640.5748838999375	-396.5686668768656	426.025815559054	497.0579760371204	-369.2689542315671	442.9424130326188	398.0022021363975	-320.1253587893195	313.7053507853727	333.9611566178622	-374.6189897370422	315.134134571112	226.812961056084	-314.6629636636814	203.0779096601952	170.6776800359739	-345.8358426696955	318.4736454444109	56.28978047987761	-335.1957608372833	276.5922890876934	37.79583346527357	-375.7433786987355	136.5039496408801	157.6952158756449	-298.0958084972673	571.3146523666845	919.269836156835	-74.28931378627898	728.7878755906506	814.3122391749215	-171.5696388645068	698.3937038696494	705.7687445088378	-89.14874736805751	752.4416076529623	578.3052964133665	-122.5779256929908	745.6000998244565	474.2660649932481	-179.4458357429633	617.7194096794967	418.4331050709077	-120.2385304874028	592.9402178017067	324.4618943855505	-179.5447658973635	483.0382716433705	277.2492380050487	-142.986232767384	525.8976682354562	125.3662357237347	-161.8908701006235	486.4192296761796	137.6470826141791	-124.1024658145909	423.0508255818379	314.4883290563009	-191.9176119978673	
315	141.252	600.2529080360392	1514.789040657222	-287.3017811741515	483.7924667287638	1300.360255109677	-293.3252825543798	713.5075073351373	1396.808672084413	-260.6604341844928	671.5503966632457	1466.527874826138	-431.8470140723593	610.5538119922606	1480.869926781919	-130.0536177167112	624.9018648570736	987.1384677759322	-385.6747563966528	613.0725149392911	1004.683946273959	-131.7294761330535	450.9347764712053	1065.132109285018	-278.8297400026642	445.5844421140166	1065.580242833959	-238.6932216228471	566.9213101946335	1062.280168685732	-422.6447991185287	551.1413633202746	1090.500155116791	-102.4862563057672	520.6135107587345	920.420111596728	-428.3894075120621	599.5029714791592	708.6925041631314	-340.9208422215835	473.6219599363173	643.6556072756891	-396.4050131962169	419.1054533500933	501.0478715890745	-369.2802629722821	435.7625499659879	401.5090524463623	-320.9092302619762	306.0218738953258	338.2941075516003	-374.9848576852359	308.2161316816273	230.2123057199968	-316.2415149592576	195.9711429925801	174.3386305796286	-346.8735244963941	308.5185305576597	56.15668535641801	-335.6862890285973	266.0064265852832	38.44246095408216	-375.8727420307	129.8653180031287	163.2676235837583	-299.1026973484789	572.2530294436308	924.1087120807445	-74.05441631698213	729.1503297028668	819.5957833944133	-171.7755345589239	699.2490233562535	710.4943930305801	-89.73291183660497	753.1395239249028	582.4026795096357	-123.296730568586	749.8124434890484	477.723694427914	-179.9536680600218	623.9626866562684	416.7398854486016	-121.4456743135571	603.5326261740527	321.6800126560207	-180.6705585202322	495.3010278840757	270.0873297862964	-144.863112015448	544.713581755965	119.8551312247003	-162.5257190845793	504.3117038033152	130.6950832864073	-125.1575508689142	434.2549569137332	304.644408030145	-194.6388027733567	
316	141.256	600.6284098565581	1517.518193229684	-287.0543802929406	485.0279039140751	1302.954068368341	-294.8186428589333	713.7835920569038	1399.852880637857	-259.0502933552071	673.7915466152798	1469.907790025686	-430.4240840819276	609.1958225313446	1483.734071483258	-129.9510282143784	626.2124695654705	989.0142259598369	-385.4955914924263	613.4880958171278	1008.513370438766	-132.2370492325419	452.2717291393154	1068.106354488835	-279.2907512915334	446.546981768405	1068.826159673785	-239.2382554742798	568.4781384606147	1064.354128387565	-422.6634875786492	551.7586515514106	1094.575613169585	-103.2364371692299	521.0092600117576	922.6005383277768	-428.1039206112978	596.8390706833344	709.7256569884569	-340.7940269950778	469.7680531367586	646.8040437447095	-396.2148294869109	412.348647105517	505.1318214288034	-369.2999513115998	428.8223977574635	405.1017246498905	-321.7445083814717	298.5818325152368	342.6962754987215	-375.3924756345322	301.5992410323239	233.6622752347987	-317.9065337632889	189.2099697890205	178.0355979710829	-348.0134022301754	298.7162214343147	56.13038889061766	-336.216191431173	255.5758364042112	39.24862731512982	-376.042031780576	123.6216290534847	168.9952866686835	-300.2300583991876	573.1908946068046	928.9692405558052	-73.83904746778087	729.4475272824679	824.6232534779571	-171.9897697106227	699.8587038955716	714.9605450002715	-90.40500300400214	753.4584875483939	586.1165896927545	-124.0205753576578	753.7099732986513	480.947611049153	-180.4645094299247	630.1817019261114	414.8080194344607	-122.617891720303	614.1303397088675	318.8868252395686	-181.7866943691195	507.8094284889586	262.9235321801201	-146.697109414417	563.6830516470112	114.6675238383393	-163.2084548389167	522.4392864526513	123.9960288951297	-126.2388820018315	445.8104701759044	294.7923843335546	-197.2742898075069	
317	141.26	601.001350318278	1520.164677621598	-286.8020759811527	486.296268759615	1305.47915413641	-296.2757639540956	714.0442794890105	1402.845041133649	-257.4614667635246	675.9701963649859	1473.215076769365	-428.9618284703156	607.8912380617618	1486.520860377442	-129.8766688571478	627.6191859384469	990.8517375256713	-385.2234206481124	613.9306053769172	1012.287306780244	-132.7293198308604	453.6824355293031	1071.0384983781	-279.8010947534576	447.573312866096	1072.020765324725	-239.8428051952754	570.1501689878412	1066.40626310284	-422.6541281202425	552.3652219643321	1098.595218074582	-104.0001926455957	521.5848252573162	924.7296513352696	-427.8653598002703	594.3155821802023	710.7484980242442	-340.7405136024889	466.0022637117256	650.0118977215142	-395.993031643863	405.7742073812915	509.2934919109671	-369.3227299128467	422.1325564108544	408.7661161584178	-322.6052389911932	291.4077012642757	347.1461296496084	-375.8389286324891	295.2786216660096	237.1522421989236	-319.6351596736353	182.79424155859	181.767469374627	-349.2528652631974	289.0692544772439	56.23045408432522	-336.7854034467405	245.3081192891119	40.23554063865152	-376.2536962301648	117.7743586243925	174.8695613279949	-301.4759850089065	574.1190151616989	933.8211767088335	-73.64588134954886	729.6799664883595	829.360868701766	-172.2031945306272	700.2098003514228	719.1345233275384	-91.15918885417457	753.4124286902047	589.4261399429481	-124.7454983966207	757.2965723104933	483.9219468766105	-180.9736286345866	636.3782741857439	412.6467148765173	-123.7463237125414	624.7178615907	316.0960946786076	-182.8856700411412	520.5540158507599	255.7846833929914	-148.4771174887259	582.7862523526896	109.8468514598589	-163.9564909669236	540.7949509853817	117.5870543006928	-127.3597972677468	457.6997903540167	284.960768672669	-199.8003929633246	
318	141.264	601.367078120201	1522.711421260121	-286.5447144113846	487.589518281878	1307.918715459601	-297.6926674954551	714.2889497965172	1405.77142873349	-255.896623629317	678.0748491503382	1476.434190963663	-427.4688600949918	606.6398002928606	1489.215252643829	-129.8282240379738	629.1131230505177	992.6322167336103	-384.8622910995667	614.3938153539838	1015.975845058004	-133.2070093543788	455.1575823064517	1073.914678776139	-280.3716914531479	448.656399206122	1075.148080454161	-240.5171134842003	571.9524054014818	1068.426134584474	-422.6152034215218	552.9493098714102	1102.528958926175	-104.7736639139369	522.3351872206898	926.7942065324429	-427.682056234883	591.9296850864766	711.7620717760998	-340.7447720816592	462.3343924618964	653.26919729987	-395.7365650008568	399.4047026942689	513.5143140416344	-369.3442562213443	415.7028792639696	412.4869126020482	-323.4633794245525	284.5217047079096	351.6212582113226	-376.3207439527816	289.2459352840797	240.6718501882764	-321.4012965038862	176.7191428443029	185.534529388225	-350.5860766048339	279.5780805805766	56.47626477930252	-337.3927831561862	235.2088282691955	41.42306339414925	-376.5090500752045	112.3197084414808	180.8800102286045	-302.8345737708539	575.0292581071332	938.6305431404004	-73.47696267770439	729.846427229538	833.7738518690868	-172.4080150454176	700.2899959664419	722.9849608056837	-91.98610392980463	753.0180494370367	592.3146708969972	-125.4677094423583	760.577058898321	486.633159893221	-181.4762554487094	642.5503052307409	410.2699425065883	-124.8228858638797	635.2762811836002	313.3232116533148	-183.9597739062464	533.5201139347937	248.6996685828682	-150.1927267779482	601.9990518224863	105.4393630916587	-164.7862821067946	559.3680257580044	111.5082677002938	-128.5338027387889	469.9002757991635	275.1773605468818	-202.1952913590118	
